<svg width="24" height="24" xmlns="http://www.w3.org/2000/svg" fill-rule="evenodd" clip-rule="evenodd"><path d="M11.263 4.004c.795-2.326 3.053-4.004 5.715-4.004 3.326 0 6.022 2.62 6.022 5.85 0 1.986-.966 3.593-2.481 5.202.284.925.437 1.908.437 2.926 0 5.494-4.449 9.956-9.938 9.978h-.039999999999999994c-5.507 0-9.978-4.471-9.978-9.978s4.471-9.978 9.978-9.978h.039999999999999994l.245.004zm2.833 13.996h-6.192c.634 2.995 1.915 4.956 3.096 4.956s2.462-1.961 3.096-4.956zm-7.215 0h-3.966c1.168 2.348 3.332 4.115 5.937 4.747-.871-1.052-1.568-2.723-1.971-4.747zm12.16 0h-3.922c-.401 2.015-1.094 3.681-1.96 4.733 2.581-.643 4.722-2.401 5.882-4.733zm-5.652-7h-5.673c-.138.924-.216 1.924-.216 2.979 0 1.071.08 2.086.222 3.021h6.556c.142-.935.222-1.95.222-3.021 0-.678-.032-1.332-.092-1.959-.361-.342-.702-.681-1.019-1.02zm6.332.856c-.818.786-1.748 1.587-2.743 2.447-.52-.45-1.022-.883-1.5-1.307.015.324.022.651.022.983 0 1.053-.074 2.068-.21 3.021h4.175c.332-.939.513-1.948.513-3 0-.739-.089-1.457-.257-2.144zm-13.017-.856h-4.213c-.332.939-.513 1.948-.513 3s.181 2.061.513 3h4.219c-.136-.953-.21-1.968-.21-3.021 0-1.037.072-2.038.204-2.979zm10.274-10c2.77 0 5.022 2.176 5.022 4.85 0 2.629-2.076 4.574-5.022 7.131-2.946-2.557-5.021-4.502-5.021-7.131 0-2.674 2.252-4.85 5.021-4.85zm.022 1c2.208 0 4 1.792 4 4s-1.792 4-4 4-4-1.792-4-4 1.792-4 4-4zm-5.98 3h-.026c-1.184.006-2.469 1.985-3.099 5h4.638c-.984-1.273-1.576-2.595-1.576-4.15 0-.289.022-.572.063-.85zm-2.213.264c-2.585.641-4.731 2.401-5.892 4.736h3.957c.395-2.008 1.079-3.674 1.935-4.736zm8.672-.264h-1v-1.955c-1.246.219-2.228 1.207-2.437 2.455h1.958v1h-1.958c.209 1.248 1.191 2.236 2.437 2.455v-1.955h1v1.962c1.265-.203 2.267-1.199 2.479-2.462h-1.958v-1h1.958c-.212-1.263-1.214-2.259-2.479-2.462v1.962z"/></svg>